# xmcd
#
# Track frame offsets: 
#        150
#        6447
#        30099
#        62044
#        81311
#        105462
#        122462
#        146226
#        158709
#        183724
#        199983
#        230943
#        248943
#        264042
#        286479
#
# Disc length: 4076 seconds
#
# Revision: 0
# Processed by: cddbd v1.5.2PL0 Copyright (c) Steve Scherf et al.
# Submitted via: ExactAudioCopy v0.99pb5
#
DISCID=d30fea0f
DTITLE=Lambchop - ROMP (Rainer On My Parade)
DYEAR=2008
DGENRE=Alternative
TTITLE0=I'm Glad I Never
TTITLE1=Seemingly Stranded
TTITLE2=Miss Prissy
TTITLE3=Beyond Belief
TTITLE4=Give Me Your Love
TTITLE5=I've Been Lonely For So Long
TTITLE6=Love TKO
TTITLE7=Hey, Where's Your Girl
TTITLE8=Why Can't I touch It
TTITLE9=(Get A) Grip (On Yourself)
TTITLE10=This Corrosion
TTITLE11=Fall Of Troy
TTITLE12=Chelsey Hotel #2
TTITLE13=Give It
TTITLE14=Where Or When
EXTD=
EXTT0=
EXTT1=
EXTT2=
EXTT3=
EXTT4=
EXTT5=
EXTT6=
EXTT7=
EXTT8=
EXTT9=
EXTT10=
EXTT11=
EXTT12=
EXTT13=
EXTT14=
PLAYORDER=
